# xmcd
#
# Track frame offsets:
# 150
# 21796
# 37217
# 54602
# 72485
# 87486
# 101645
# 117514
# 137286
# 152601
# 168710
# 188963
# 205623
# 218677
# 236982
# 251538
# 263539
#
# Disc length: 3750 seconds
#
#
# Revision: 0
# Processed by: cddbd v1.5.1PL2 Copyright (c) Steve Scherf et al.
# Submitted via: FreeRIP 2.945 
#
DISCID=f60ea411
DTITLE=Vanderley Rodrigo - Vanderley Rodrigo
DYEAR=2006
DGENRE=Country
TTITLE0=Gostosa
TTITLE1=Lua
TTITLE2=Um Bilhetinho
TTITLE3=Eu Te Perdôo
TTITLE4=Adesivo De Amor
TTITLE5=Como Te Quero
TTITLE6=Bota Lenha Na Fogueira
TTITLE7=Coxa Bamba
TTITLE8=Olhe Nos Meus Olhos
TTITLE9=Temporal De Paixão
TTITLE10=Bar De Esquina
TTITLE11=Te Amo Por Demais
TTITLE12=Mulherada Boa
TTITLE13=Te Amo E Te Odeio
TTITLE14=Moda Nova
TTITLE15=Piripaque Do Coração
TTITLE16=É Mentira Dela
EXTD=
EXTT0=
EXTT1=
EXTT2=
EXTT3=
EXTT4=
EXTT5=
EXTT6=
EXTT7=
EXTT8=
EXTT9=
EXTT10=
EXTT11=
EXTT12=
EXTT13=
EXTT14=
EXTT15=
EXTT16=
PLAYORDER=
